<svg width="16" height="11" viewBox="0 0 16 11" fill="none" xmlns="http://www.w3.org/2000/svg">
<path d="M15.3452 1.66021L6.34521 10.6602C6.26683 10.7389 6.17368 10.8013 6.07112 10.8439C5.96856 10.8865 5.85861 10.9084 5.74756 10.9084C5.63651 10.9084 5.52655 10.8865 5.42399 10.8439C5.32143 10.8013 5.22829 10.7389 5.1499 10.6602L1.2124 6.72271C1.13392 6.64423 1.07166 6.55105 1.02918 6.44851C0.986706 6.34596 0.964844 6.23605 0.964844 6.12506C0.964844 6.01406 0.986706 5.90415 1.02918 5.80161C1.07166 5.69906 1.13392 5.60589 1.2124 5.5274C1.29089 5.44892 1.38406 5.38666 1.48661 5.34418C1.58915 5.30171 1.69906 5.27984 1.81006 5.27984C1.92105 5.27984 2.03096 5.30171 2.13351 5.34418C2.23605 5.38666 2.32923 5.44892 2.40771 5.5274L5.74826 8.86795L14.1513 0.466307C14.3098 0.307799 14.5248 0.21875 14.749 0.21875C14.9731 0.21875 15.1881 0.307799 15.3466 0.466307C15.5051 0.624815 15.5942 0.839799 15.5942 1.06396C15.5942 1.28813 15.5051 1.50311 15.3466 1.66162L15.3452 1.66021Z" fill="white"/>
</svg>
