<svg width="50" height="36" viewBox="0 0 50 36" fill="none" xmlns="http://www.w3.org/2000/svg">
<path d="M9.72497 23.2649C8.6525 25.9624 6.96253 28.6274 4.70377 31.1949C3.98877 32.0074 3.89127 33.1774 4.47625 34.0874C4.9313 34.8024 5.67873 35.1924 6.49123 35.1924C6.71875 35.1924 6.94628 35.1762 7.1738 35.0949C11.9512 33.6974 23.115 28.7412 23.4238 12.8486C23.5375 6.72242 19.0525 1.45744 13.2188 0.856186C9.98502 0.53117 6.76755 1.58736 4.37875 3.73237C1.99005 5.89365 0.625 8.98119 0.625 12.1987C0.625 17.5611 4.42755 22.2574 9.72497 23.2649Z" fill="white"/>
<path d="M39.1538 0.856186C35.9362 0.53117 32.7187 1.58736 30.33 3.73237C27.9412 5.89365 26.5762 8.98119 26.5762 12.1987C26.5762 17.5611 30.3787 22.2574 35.6762 23.2649C34.6037 25.9624 32.9137 28.6274 30.6549 31.1949C29.9399 32.0074 29.8424 33.1774 30.4275 34.0874C30.8825 34.8024 31.63 35.1923 32.4425 35.1923C32.6699 35.1923 32.8975 35.1762 33.125 35.0948C37.9025 33.6974 49.0662 28.7411 49.375 12.8486V12.6212C49.375 6.59239 44.9388 1.45744 39.1538 0.856186Z" fill="white"/>
</svg>
