<svg width="35" height="35" viewBox="0 0 35 35" fill="none" xmlns="http://www.w3.org/2000/svg">
<g id="Link">
<path id="Vector" d="M32.5468 16.307L22.2016 5.47647C21.9846 5.24909 21.7081 5.09419 21.4071 5.03135C21.106 4.96852 20.7939 5.00058 20.5103 5.12348C20.2266 5.24638 19.9842 5.45459 19.8136 5.72178C19.643 5.98897 19.5519 6.30312 19.5519 6.62451V11.5984C16.2207 12.0208 12.6128 13.7496 9.62693 16.4004C5.85609 19.7498 3.50772 24.0752 3.01373 28.5848C2.96369 29.0373 3.0512 29.4948 3.26382 29.8923C3.47645 30.2898 3.80336 30.607 4.19807 30.7987C4.59278 30.9905 5.0352 31.0471 5.46241 30.9605C5.88962 30.8739 6.27987 30.6485 6.57767 30.3163C7.93031 28.8082 12.6555 24.124 19.5519 23.4904V28.2856C19.5522 28.6067 19.6433 28.9205 19.8139 29.1874C19.9844 29.4543 20.2266 29.6623 20.51 29.7852C20.7934 29.908 21.1052 29.9402 21.406 29.8776C21.7069 29.815 21.9833 29.6605 22.2003 29.4336L32.5455 18.6031C32.8363 18.2987 32.9998 17.8858 33 17.4553C33.0002 17.0248 32.8372 16.6118 32.5468 16.307ZM22.6555 24.3595V21.7873C22.6555 21.3564 22.492 20.9432 22.201 20.6385C21.9099 20.3338 21.5152 20.1627 21.1037 20.1627C14.7672 20.1627 9.90884 23.0815 6.90613 25.5928C7.82815 23.1343 9.44459 20.8247 11.6352 18.8793C14.5474 16.2921 18.0868 14.7474 21.1037 14.7474C21.5152 14.7474 21.9099 14.5763 22.201 14.2716C22.492 13.9669 22.6555 13.5537 22.6555 13.1228V10.5506L29.2506 17.455L22.6555 24.3595Z" fill="#343434"/>
</g>
</svg>
