<svg width="22" height="22" viewBox="0 0 22 22" fill="none" xmlns="http://www.w3.org/2000/svg">
<g id="ShareFat">
<path id="Vector" d="M19.8423 8.9802L13.2423 2.3802C13.1039 2.24164 12.9275 2.14724 12.7354 2.10895C12.5434 2.07066 12.3443 2.0902 12.1633 2.16509C11.9823 2.23998 11.8277 2.36686 11.7188 2.52969C11.61 2.69251 11.5519 2.88395 11.5519 3.0798V6.11085C9.42667 6.36825 7.12492 7.42177 5.22 9.03712C2.8143 11.0782 1.3161 13.714 1.00095 16.4621C0.969021 16.7379 1.02485 17.0167 1.1605 17.2589C1.29615 17.5011 1.50471 17.6944 1.75653 17.8113C2.00834 17.9281 2.29059 17.9626 2.56314 17.9099C2.83569 17.8571 3.08466 17.7197 3.27465 17.5173C4.1376 16.5982 7.15215 13.7437 11.5519 13.3576V16.2798C11.552 16.4755 11.6102 16.6667 11.719 16.8294C11.8278 16.992 11.9823 17.1188 12.1631 17.1936C12.3439 17.2685 12.5428 17.2881 12.7348 17.25C12.9267 17.2118 13.103 17.1177 13.2415 16.9794L19.8415 10.3794C20.027 10.1939 20.1313 9.94232 20.1314 9.67997C20.1316 9.41762 20.0276 9.16593 19.8423 8.9802ZM13.5319 13.8873V12.3198C13.5319 12.0572 13.4276 11.8054 13.2419 11.6198C13.0562 11.4341 12.8044 11.3298 12.5419 11.3298C8.49937 11.3298 5.39985 13.1085 3.4842 14.6389C4.07242 13.1407 5.10367 11.7332 6.50122 10.5477C8.35912 8.97112 10.6171 8.0298 12.5419 8.0298C12.8044 8.0298 13.0562 7.92549 13.2419 7.73983C13.4276 7.55417 13.5319 7.30236 13.5319 7.0398V5.4723L17.7394 9.6798L13.5319 13.8873Z" fill="#9E0B0F"/>
</g>
</svg>
